<mxfile host="app.diagrams.net" modified="2021-02-09T03:51:28.921Z" agent="5.0 (Windows)" etag="KLJpAMR_UwyagOJ1GqLS" version="14.2.9" type="github">
  <diagram id="c4GuWonMYuvGhFzX695u" name="Page-1">
    <mxGraphModel dx="1038" dy="547" grid="1" gridSize="10" guides="1" tooltips="1" connect="1" arrows="1" fold="1" page="1" pageScale="1" pageWidth="850" pageHeight="1100" math="0" shadow="0">
      <root>
        <mxCell id="0" />
        <mxCell id="1" parent="0" />
        <mxCell id="JeUQIFiGIvLs922ojF5O-4" value="" style="edgeStyle=orthogonalEdgeStyle;rounded=0;orthogonalLoop=1;jettySize=auto;html=1;" edge="1" parent="1" source="JeUQIFiGIvLs922ojF5O-3" target="JeUQIFiGIvLs922ojF5O-1">
          <mxGeometry relative="1" as="geometry" />
        </mxCell>
        <mxCell id="JeUQIFiGIvLs922ojF5O-5" style="edgeStyle=orthogonalEdgeStyle;rounded=0;orthogonalLoop=1;jettySize=auto;html=1;entryX=0;entryY=0.5;entryDx=0;entryDy=0;" edge="1" parent="1" source="JeUQIFiGIvLs922ojF5O-1" target="JeUQIFiGIvLs922ojF5O-2">
          <mxGeometry relative="1" as="geometry" />
        </mxCell>
        <mxCell id="JeUQIFiGIvLs922ojF5O-7" value="" style="edgeStyle=orthogonalEdgeStyle;rounded=0;orthogonalLoop=1;jettySize=auto;html=1;" edge="1" parent="1" source="JeUQIFiGIvLs922ojF5O-1" target="JeUQIFiGIvLs922ojF5O-6">
          <mxGeometry relative="1" as="geometry" />
        </mxCell>
        <mxCell id="JeUQIFiGIvLs922ojF5O-11" style="edgeStyle=orthogonalEdgeStyle;rounded=0;orthogonalLoop=1;jettySize=auto;html=1;exitX=0;exitY=1;exitDx=0;exitDy=0;entryX=1;entryY=0.75;entryDx=0;entryDy=0;" edge="1" parent="1" source="JeUQIFiGIvLs922ojF5O-1" target="JeUQIFiGIvLs922ojF5O-3">
          <mxGeometry relative="1" as="geometry">
            <Array as="points">
              <mxPoint x="425" y="185" />
            </Array>
          </mxGeometry>
        </mxCell>
        <mxCell id="JeUQIFiGIvLs922ojF5O-1" value="&lt;div&gt;1.0&lt;br&gt;&lt;/div&gt;&lt;div&gt;New License&lt;/div&gt;" style="ellipse;whiteSpace=wrap;html=1;aspect=fixed;" vertex="1" parent="1">
          <mxGeometry x="410" y="120" width="100" height="100" as="geometry" />
        </mxCell>
        <mxCell id="JeUQIFiGIvLs922ojF5O-2" value="License Db" style="html=1;dashed=0;whitespace=wrap;shape=partialRectangle;right=0;left=0;" vertex="1" parent="1">
          <mxGeometry x="660" y="155" width="100" height="30" as="geometry" />
        </mxCell>
        <mxCell id="JeUQIFiGIvLs922ojF5O-3" value="New Applicant" style="whiteSpace=wrap;html=1;" vertex="1" parent="1">
          <mxGeometry x="220" y="140" width="120" height="60" as="geometry" />
        </mxCell>
        <mxCell id="JeUQIFiGIvLs922ojF5O-9" value="" style="edgeStyle=orthogonalEdgeStyle;rounded=0;orthogonalLoop=1;jettySize=auto;html=1;" edge="1" parent="1" source="JeUQIFiGIvLs922ojF5O-8" target="JeUQIFiGIvLs922ojF5O-6">
          <mxGeometry relative="1" as="geometry" />
        </mxCell>
        <mxCell id="JeUQIFiGIvLs922ojF5O-15" style="edgeStyle=orthogonalEdgeStyle;rounded=0;orthogonalLoop=1;jettySize=auto;html=1;" edge="1" parent="1" source="JeUQIFiGIvLs922ojF5O-6" target="JeUQIFiGIvLs922ojF5O-14">
          <mxGeometry relative="1" as="geometry" />
        </mxCell>
        <mxCell id="JeUQIFiGIvLs922ojF5O-19" style="edgeStyle=orthogonalEdgeStyle;rounded=0;orthogonalLoop=1;jettySize=auto;html=1;exitX=0;exitY=1;exitDx=0;exitDy=0;entryX=1;entryY=0.75;entryDx=0;entryDy=0;" edge="1" parent="1" source="JeUQIFiGIvLs922ojF5O-6" target="JeUQIFiGIvLs922ojF5O-8">
          <mxGeometry relative="1" as="geometry">
            <Array as="points">
              <mxPoint x="425" y="365" />
            </Array>
          </mxGeometry>
        </mxCell>
        <mxCell id="JeUQIFiGIvLs922ojF5O-6" value="&lt;div&gt;2.0&lt;br&gt;&lt;/div&gt;&lt;div&gt;Renew License&lt;/div&gt;" style="ellipse;whiteSpace=wrap;html=1;aspect=fixed;" vertex="1" parent="1">
          <mxGeometry x="410" y="300" width="100" height="100" as="geometry" />
        </mxCell>
        <mxCell id="JeUQIFiGIvLs922ojF5O-8" value="Renew Applicant" style="whiteSpace=wrap;html=1;" vertex="1" parent="1">
          <mxGeometry x="220" y="320" width="120" height="60" as="geometry" />
        </mxCell>
        <mxCell id="JeUQIFiGIvLs922ojF5O-10" value="&lt;div&gt;enter data&lt;/div&gt;&lt;div&gt;&lt;br&gt;&lt;/div&gt;" style="text;html=1;align=center;verticalAlign=middle;resizable=0;points=[];autosize=1;" vertex="1" parent="1">
          <mxGeometry x="340" y="140" width="70" height="30" as="geometry" />
        </mxCell>
        <mxCell id="JeUQIFiGIvLs922ojF5O-12" value="&lt;div&gt;all new applicant&lt;/div&gt;&lt;div&gt; data&lt;/div&gt;&lt;div&gt;&lt;br&gt;&lt;/div&gt;" style="text;html=1;align=center;verticalAlign=middle;resizable=0;points=[];autosize=1;" vertex="1" parent="1">
          <mxGeometry x="325" y="200" width="100" height="50" as="geometry" />
        </mxCell>
        <mxCell id="JeUQIFiGIvLs922ojF5O-13" value="&lt;div&gt;Register in db&lt;/div&gt;&lt;div&gt;&lt;br&gt;&lt;/div&gt;" style="text;html=1;align=center;verticalAlign=middle;resizable=0;points=[];autosize=1;" vertex="1" parent="1">
          <mxGeometry x="530" y="140" width="90" height="30" as="geometry" />
        </mxCell>
        <mxCell id="JeUQIFiGIvLs922ojF5O-14" value="Renew license db" style="html=1;dashed=0;whitespace=wrap;shape=partialRectangle;right=0;left=0;" vertex="1" parent="1">
          <mxGeometry x="660" y="335" width="100" height="30" as="geometry" />
        </mxCell>
        <mxCell id="JeUQIFiGIvLs922ojF5O-16" value="&lt;div&gt;Register in db&lt;/div&gt;&lt;div&gt;&lt;br&gt;&lt;/div&gt;" style="text;html=1;align=center;verticalAlign=middle;resizable=0;points=[];autosize=1;" vertex="1" parent="1">
          <mxGeometry x="530" y="320" width="90" height="30" as="geometry" />
        </mxCell>
        <mxCell id="JeUQIFiGIvLs922ojF5O-17" value="&lt;div&gt;update data&lt;/div&gt;&lt;div&gt;&lt;br&gt;&lt;/div&gt;" style="text;html=1;align=center;verticalAlign=middle;resizable=0;points=[];autosize=1;" vertex="1" parent="1">
          <mxGeometry x="335" y="320" width="80" height="30" as="geometry" />
        </mxCell>
        <mxCell id="JeUQIFiGIvLs922ojF5O-18" value="&lt;div&gt;provide update data&lt;/div&gt;&lt;div&gt; before submit&lt;/div&gt;" style="text;html=1;align=center;verticalAlign=middle;resizable=0;points=[];autosize=1;" vertex="1" parent="1">
          <mxGeometry x="315" y="400" width="120" height="30" as="geometry" />
        </mxCell>
      </root>
    </mxGraphModel>
  </diagram>
</mxfile>
